<?xml version="1.0" encoding="UTF-8" ?>
<svg version="1.1" width="128" height="128" xmlns="http://www.w3.org/2000/svg" shape-rendering="crispEdges">
<rect x="32" y="16" width="16" height="16" fill="#5B3129" />
<rect x="48" y="16" width="16" height="16" fill="#5B3129" />
<rect x="64" y="16" width="16" height="16" fill="#5B3129" />
<rect x="80" y="16" width="16" height="16" fill="#5B3129" />
<rect x="16" y="32" width="16" height="16" fill="#5B3129" />
<rect x="32" y="32" width="16" height="16" fill="#663931" />
<rect x="48" y="32" width="16" height="16" fill="#663931" />
<rect x="64" y="32" width="16" height="16" fill="#663931" />
<rect x="80" y="32" width="16" height="16" fill="#663931" />
<rect x="96" y="32" width="16" height="16" fill="#5B3129" />
<rect x="16" y="48" width="16" height="16" fill="#5B3129" />
<rect x="32" y="48" width="16" height="16" fill="#5B3129" />
<rect x="48" y="48" width="16" height="16" fill="#5B3129" />
<rect x="64" y="48" width="16" height="16" fill="#5B3129" />
<rect x="80" y="48" width="16" height="16" fill="#5B3129" />
<rect x="96" y="48" width="16" height="16" fill="#5B3129" />
<rect x="32" y="64" width="16" height="16" fill="#8F563B" />
<rect x="48" y="64" width="16" height="16" fill="#9B5C3E" />
<rect x="64" y="64" width="16" height="16" fill="#9B5C3E" />
<rect x="80" y="64" width="16" height="16" fill="#8F563B" />
<rect x="32" y="80" width="16" height="16" fill="#8F563B" />
<rect x="48" y="80" width="16" height="16" fill="#9B5C3E" />
<rect x="64" y="80" width="16" height="16" fill="#9B5C3E" />
<rect x="80" y="80" width="16" height="16" fill="#8F563B" />
<rect x="48" y="96" width="16" height="16" fill="#8F563B" />
<rect x="64" y="96" width="16" height="16" fill="#8F563B" />
</svg>